<?xml version="1.0" encoding="UTF-8"?>
<svg xmlns="http://www.w3.org/2000/svg" id="Layer_1" data-name="Layer 1" viewBox="0 0 24 24">
  <path d="M23.684,11.52c-.301-.363-.76-.555-1.229-.514-1.489,.135-4.333,.639-6.643,2.504-2.789,2.252-4.812,6.454-4.812,9.99,0,.276,.224,.5,.5,.5s.5-.224,.5-.5c0-.486,.044-.989,.127-1.5,3.037-.022,5.4-.838,7.647-2.635,2.206-1.765,3.607-4.533,4.183-6.535,.131-.455,.029-.944-.273-1.311Zm-.688,1.033c-.534,1.855-1.824,4.413-3.847,6.031-1.841,1.473-3.703,2.205-6.06,2.373,3.27-3.832,7.113-5.997,7.154-6.02,.241-.134,.328-.438,.194-.68-.134-.24-.439-.327-.68-.194-.169,.094-3.796,2.14-7.09,5.86,.769-2.198,2.14-4.316,3.773-5.636,2.183-1.762,4.997-2.185,6.104-2.285,.29-.037,.542,.274,.451,.551Zm-13.996-.553c3.309,0,6-2.691,6-6S12.309,0,9,0,3,2.691,3,6s2.691,6,6,6Zm0-11c2.757,0,5,2.243,5,5s-2.243,5-5,5-5-2.243-5-5S6.243,1,9,1Zm2.353,14.352c-.759-.233-1.551-.352-2.353-.352-4.411,0-8,3.589-8,8v.5c0,.276-.224,.5-.5,.5s-.5-.224-.5-.5v-.5c0-4.963,4.038-9,9-9,.902,0,1.792,.133,2.647,.396,.264,.081,.412,.36,.331,.625-.081,.264-.358,.415-.625,.33Z"/>
</svg>
