<svg width="24" height="24" viewBox="0 0 24 24" fill="none" xmlns="http://www.w3.org/2000/svg">
<path d="M22 5.72411V2.00011C22 1.44811 21.553 1.00011 21 1.00011C20.447 1.00011 20 1.44811 20 2.00011V4.36611L14.797 0.855106C13.098 -0.290895 10.902 -0.290895 9.203 0.855106L2.203 5.57911C0.824 6.51011 0 8.05911 0 9.72411V19.0001C0 21.7571 2.243 24.0001 5 24.0001H7C7.553 24.0001 8 23.5521 8 23.0001V14.0001C8 13.4491 8.448 13.0001 9 13.0001H15C15.552 13.0001 16 13.4491 16 14.0001V23.0001C16 23.5521 16.447 24.0001 17 24.0001H19C21.757 24.0001 24 21.7571 24 19.0001V9.72411C24 8.14311 23.256 6.66611 22 5.72411Z" fill="#4A3AFF"/>
</svg>
