<svg width="24" height="24" viewBox="0 0 24 24" fill="none" xmlns="http://www.w3.org/2000/svg">
<path d="M22.017 5.83374L21 5.14785V1.5034C21 1.22744 20.776 1.00347 20.5 1.00347C20.224 1.00347 20 1.22744 20 1.5034V4.47295L14.517 0.773508C12.988 -0.258336 11.011 -0.257336 9.484 0.773508L1.983 5.83374C0.741 6.67062 0 8.06541 0 9.56318V19.5007C0 21.9813 2.019 24 4.5 24H7.5C7.776 24 8 23.776 8 23.5001V14.5014C8 13.6746 8.673 13.0017 9.5 13.0017H14.5C15.327 13.0017 16 13.6746 16 14.5014V23.5001C16 23.776 16.224 24 16.5 24H19.5C21.981 24 24 21.9813 24 19.5007V9.56318C24 8.06441 23.259 6.67062 22.017 5.83374ZM23 19.5007C23 21.4304 21.43 23.0002 19.5 23.0002H17V14.5014C17 13.1236 15.879 12.0018 14.5 12.0018H9.5C8.121 12.0018 7 13.1236 7 14.5014V23.0002H4.5C2.57 23.0002 1 21.4304 1 19.5007V9.56318C1 8.39736 1.576 7.31352 2.542 6.66262L10.042 1.60238C11.231 0.799504 12.769 0.799504 13.958 1.60238L21.458 6.66262C22.424 7.31352 23 8.39836 23 9.56318V19.5007Z" fill="black"/>
</svg>
