<svg width="24" height="24" viewBox="0 0 24 24" fill="none" xmlns="http://www.w3.org/2000/svg">
<path d="M23.9393 7.73461C23.0743 3.92961 20.0573 0.911609 16.2513 0.0466094C15.6983 -0.0783906 15.1263 0.0506094 14.6833 0.402609C14.2483 0.749609 13.9983 1.26861 13.9983 1.82461V7.48661C13.9983 8.86461 15.1193 9.98661 16.4983 9.98661H22.1603H22.1613C22.7173 9.98661 23.2353 9.73661 23.5823 9.30261C23.9353 8.86061 24.0653 8.28861 23.9393 7.73461ZM22.8013 8.67861C22.6453 8.87461 22.4113 8.98661 22.1613 8.98661H16.4983C15.6713 8.98661 14.9983 8.31261 14.9983 7.48661V1.82461C14.9983 1.57461 15.1103 1.34161 15.3073 1.18461C15.5113 1.02261 15.7753 0.963609 16.0303 1.02161C19.4623 1.80261 22.1843 4.52461 22.9643 7.95761C23.0223 8.21361 22.9633 8.47661 22.8013 8.67961V8.67861ZM19.5823 11.9876H13.4993C12.6723 11.9876 11.9993 11.3146 11.9993 10.4876V4.40461C11.9993 3.54861 11.7533 2.90061 11.2683 2.47961C10.6213 1.91761 9.76626 1.96661 9.42926 2.01561C3.74526 2.82861 -0.383741 8.00061 0.0282594 13.7896C0.413259 19.2016 4.78526 23.5746 10.1973 23.9586C10.4643 23.9776 10.7293 23.9866 10.9933 23.9866C16.4533 23.9866 21.1963 19.9796 21.9713 14.5576C22.0193 14.2206 22.0703 13.3666 21.5073 12.7186C21.0863 12.2336 20.4393 11.9876 19.5823 11.9876ZM20.9803 14.4166C20.2413 19.5836 15.5323 23.3346 10.2683 22.9616C5.42926 22.6176 1.36926 18.5566 1.02426 13.7176C0.650259 8.44961 4.40326 3.74461 9.57026 3.00561C9.62126 2.99861 9.71326 2.98761 9.82526 2.98761C10.0573 2.98761 10.3793 3.03061 10.6133 3.23461C10.8703 3.45761 11.0003 3.85061 11.0003 4.40361V10.4866C11.0003 11.8646 12.1223 12.9866 13.5003 12.9866H19.5833C20.1373 12.9866 20.5303 13.1166 20.7523 13.3736C21.0533 13.7206 21.0033 14.2596 20.9813 14.4156L20.9803 14.4166Z" fill="black"/>
</svg>
