<svg width="24" height="24" viewBox="0 0 24 24" fill="none" xmlns="http://www.w3.org/2000/svg">
<g clip-path="url(#clip0_2322_542)">
<path d="M18.713 12.0001H14C12.8955 12.0001 12 11.1046 12 10V5.27406C12.0028 4.34172 11.5719 3.46103 10.834 2.89108C10.1348 2.33739 9.21805 2.14005 8.35302 2.35708C2.47349 3.81658 -1.10968 9.76609 0.349863 15.6457C1.37816 19.7881 4.71603 22.9579 8.90605 23.7711C14.63 24.8667 20.215 21.3079 21.6401 15.6571C21.8579 14.7909 21.6609 13.8727 21.107 13.1721C20.5305 12.4355 19.6484 12.0036 18.713 12.0001Z" fill="#4A3AFF"/>
<path d="M23.651 7.44605C23.4228 6.59752 23.0828 5.78306 22.64 5.02406C21.3083 2.73947 19.133 1.06899 16.5821 0.372049C16.414 0.326721 16.038 0.300049 16.038 0.300049C15.9037 0.300096 15.3251 0.300049 14.867 0.671064C14.1939 1.2008 14.088 1.80305 14.078 1.85006C14.0431 1.99753 14.025 2.14852 14.024 2.30006V7.00008C14.024 8.65692 15.3672 10.0001 17.024 10.0001H21.743C22.3691 10.0019 22.9584 9.70463 23.3291 9.20006C23.6032 8.83045 23.7442 8.37895 23.729 7.91906C23.7211 7.75894 23.6949 7.60022 23.651 7.44605Z" fill="#4A3AFF"/>
</g>
<defs>
<clipPath id="clip0_2322_542">
<rect width="24" height="24" fill="white"/>
</clipPath>
</defs>
</svg>
